<?xml version="1.0" encoding="iso-8859-1"?>
<!-- Generator: Adobe Illustrator 16.0.0, SVG Export Plug-In . SVG Version: 6.00 Build 0)  -->
<!DOCTYPE svg PUBLIC "-//W3C//DTD SVG 1.1//EN" "http://www.w3.org/Graphics/SVG/1.1/DTD/svg11.dtd">
<svg version="1.1" id="Capa_1" xmlns="http://www.w3.org/2000/svg" xmlns:xlink="http://www.w3.org/1999/xlink" x="0px" y="0px"
	 width="93.496px" height="93.496px" viewBox="0 0 93.496 93.496" style="enable-background:new 0 0 93.496 93.496;"
	 xml:space="preserve">
<g>
	<g>
		<path d="M73.365,76.221c-0.216-0.345-0.503-0.625-0.862-0.844c-0.361-0.217-0.808-0.324-1.337-0.324
			c-0.531,0-0.974,0.107-1.326,0.324c-0.354,0.219-0.638,0.499-0.851,0.844c-0.214,0.346-0.364,0.742-0.453,1.191
			c-0.088,0.45-0.134,0.906-0.134,1.372c0,0.465,0.045,0.919,0.134,1.36c0.088,0.441,0.238,0.84,0.453,1.19
			c0.213,0.354,0.496,0.634,0.851,0.845c0.353,0.209,0.795,0.314,1.326,0.314c0.529,0,0.976-0.105,1.337-0.314
			c0.359-0.211,0.646-0.49,0.862-0.845c0.213-0.353,0.363-0.749,0.452-1.19s0.133-0.896,0.133-1.36s-0.044-0.922-0.133-1.372
			C73.729,76.963,73.578,76.564,73.365,76.221z"/>
		<path d="M41.728,75.053c-0.5,0-0.917,0.086-1.248,0.258c-0.332,0.172-0.597,0.387-0.795,0.642c-0.2,0.255-0.34,0.524-0.42,0.81
			c-0.082,0.285-0.129,0.539-0.144,0.766h5.105c-0.148-0.811-0.41-1.426-0.785-1.846S42.495,75.053,41.728,75.053z"/>
		<path d="M80.979,0C58.193,0,35.408,0,12.622,0c-2.199,0.106-2.321,2.181-2.319,4.095c0.04,28.443,0.027,56.887,0.029,85.33
			c0,3.062,1.023,4.07,4.115,4.07c21.558,0.001,43.115,0.002,64.672,0c3.023,0,4.053-1.048,4.053-4.132
			c0.002-28.391-0.008-56.78,0.021-85.172C83.195,2.328,82.994,0.345,80.979,0z M33.867,84.586h-3.138v-6.589
			c0-0.39-0.014-0.757-0.043-1.103c-0.03-0.345-0.111-0.645-0.243-0.898c-0.133-0.255-0.329-0.457-0.586-0.607
			c-0.258-0.148-0.607-0.225-1.05-0.225c-0.442,0-0.799,0.086-1.072,0.258c-0.272,0.174-0.485,0.398-0.641,0.676
			c-0.154,0.277-0.257,0.592-0.309,0.943c-0.052,0.354-0.078,0.709-0.078,1.068v6.477h-3.138v-6.521
			c0-0.328-0.008-0.666-0.022-1.012c-0.014-0.345-0.077-0.658-0.188-0.943c-0.111-0.285-0.295-0.514-0.553-0.688
			c-0.258-0.172-0.637-0.258-1.138-0.258c-0.162,0-0.361,0.033-0.597,0.102c-0.235,0.067-0.467,0.194-0.696,0.383
			c-0.228,0.188-0.423,0.457-0.585,0.81s-0.243,0.813-0.243,1.383v6.746h-3.138V72.96h2.961v1.574h0.044
			c0.412-0.601,0.91-1.063,1.492-1.394c0.581-0.33,1.248-0.496,2-0.496c0.722,0,1.381,0.146,1.978,0.438
			c0.597,0.293,1.049,0.791,1.358,1.495c0.339-0.51,0.799-0.959,1.382-1.35c0.582-0.39,1.27-0.584,2.066-0.584
			c0.604,0,1.164,0.074,1.679,0.225c0.515,0.15,0.958,0.391,1.326,0.72c0.368,0.33,0.656,0.763,0.862,1.293
			c0.206,0.532,0.31,1.173,0.31,1.923V84.586z M47.364,79.549h-8.244c0.044,1.02,0.302,1.766,0.773,2.237
			c0.472,0.472,1.149,0.709,2.034,0.709c0.633,0,1.178-0.162,1.634-0.483c0.457-0.322,0.737-0.664,0.84-1.022h2.762
			c-0.441,1.379-1.12,2.376-2.033,2.989c-0.914,0.614-2.019,0.922-3.315,0.922c-0.899,0-1.709-0.148-2.431-0.449
			c-0.722-0.299-1.333-0.719-1.834-1.26c-0.501-0.539-0.888-1.184-1.16-1.934c-0.273-0.75-0.409-1.574-0.409-2.474
			c0-0.869,0.14-1.679,0.419-2.429c0.281-0.75,0.678-1.397,1.194-1.944c0.515-0.548,1.13-0.979,1.845-1.293
			c0.715-0.315,1.506-0.474,2.376-0.474c0.972,0,1.819,0.191,2.541,0.573c0.722,0.384,1.315,0.896,1.779,1.541
			c0.464,0.646,0.798,1.38,1.005,2.203C47.349,77.787,47.423,78.648,47.364,79.549z M55.609,75.098h-2.298v5.756
			c0,0.539,0.088,0.899,0.266,1.078c0.177,0.182,0.529,0.271,1.061,0.271c0.354,0,0.678-0.03,0.973-0.09v2.496
			c-0.265,0.044-0.56,0.074-0.884,0.09c-0.324,0.015-0.641,0.021-0.951,0.021c-0.485,0-0.946-0.033-1.381-0.101
			s-0.817-0.203-1.148-0.405c-0.332-0.203-0.595-0.482-0.785-0.844c-0.191-0.359-0.288-0.831-0.288-1.416v-6.857h-1.9V72.96h1.9
			v-3.485h3.139v3.485h2.298V75.098z M64.666,75.727c-0.148-0.029-0.325-0.057-0.53-0.078c-0.207-0.022-0.406-0.034-0.597-0.034
			c-0.575,0-1.062,0.099-1.458,0.293c-0.398,0.194-0.72,0.461-0.962,0.798c-0.243,0.337-0.416,0.734-0.52,1.191
			s-0.155,0.94-0.155,1.451v5.238h-3.138V72.96h2.983v2.159h0.045c0.146-0.359,0.346-0.693,0.596-1
			c0.25-0.309,0.538-0.57,0.862-0.787c0.324-0.218,0.674-0.387,1.049-0.507c0.376-0.12,0.755-0.181,1.138-0.181
			c0.235,0,0.464,0.037,0.687,0.112V75.727z M64.749,25.328c-3.938,13.75-7.873,27.501-11.835,41.339c-4.02,0-8.021,0-12.188,0
			c-3.928-13.72-7.868-27.483-11.808-41.247c-0.12,0.006-0.239,0.012-0.359,0.018c0,13.707,0,27.414,0,41.225
			c-4.03,0-7.972,0-12.011,0c0-20.278,0-40.687,0-61.093L34.55,5.596l11.77,38.833c0.137,0.452,0.293,0.898,0.581,1.778
			c0.311-0.946,0.513-1.512,0.684-2.087L59.126,5.611l17.943,0.011c0,20.328,0,40.678,0,61.043c-3.946,0-7.886,0-11.96,0
			c0-13.774,0-27.578,0-41.325C64.99,25.317,64.869,25.351,64.749,25.328z M76.668,81.303c-0.28,0.75-0.678,1.391-1.193,1.924
			c-0.516,0.531-1.138,0.943-1.867,1.235c-0.729,0.293-1.543,0.438-2.441,0.438c-0.899,0-1.709-0.146-2.432-0.438
			c-0.722-0.292-1.34-0.704-1.855-1.235c-0.517-0.533-0.914-1.174-1.193-1.924c-0.279-0.748-0.419-1.589-0.419-2.519
			c0-0.931,0.141-1.772,0.419-2.53c0.28-0.756,0.677-1.4,1.193-1.934c0.516-0.531,1.134-0.943,1.855-1.236
			c0.723-0.292,1.532-0.438,2.432-0.438c0.897,0,1.712,0.146,2.441,0.438c0.729,0.293,1.352,0.705,1.867,1.236
			c0.516,0.533,0.913,1.178,1.193,1.934c0.28,0.758,0.419,1.602,0.419,2.53S76.948,80.555,76.668,81.303z"/>
	</g>
</g>
<g>
</g>
<g>
</g>
<g>
</g>
<g>
</g>
<g>
</g>
<g>
</g>
<g>
</g>
<g>
</g>
<g>
</g>
<g>
</g>
<g>
</g>
<g>
</g>
<g>
</g>
<g>
</g>
<g>
</g>
</svg>
